<?xml version="1.0" standalone="no"?>
<!DOCTYPE svg PUBLIC "-//W3C//DTD SVG 20010904//EN"
 "http://www.w3.org/TR/2001/REC-SVG-20010904/DTD/svg10.dtd">
<svg version="1.0" xmlns="http://www.w3.org/2000/svg"
 width="218.000000pt" height="218.000000pt" viewBox="0 0 218.000000 218.000000"
 preserveAspectRatio="xMidYMid meet">
<metadata>
Created by potrace 1.14, written by Peter Selinger 2001-2017
</metadata>
<g transform="translate(0.000000,218.000000) scale(0.100000,-0.100000)"
fill="#000000" stroke="none">
<path d="M612 2164 c-20 -6 -48 -16 -62 -24 -25 -13 -256 -217 -363 -320 -99
-95 -95 -65 -96 -755 0 -378 4 -608 11 -640 42 -198 177 -331 393 -385 107
-27 182 -34 365 -33 166 0 265 12 380 43 25 7 50 13 57 14 7 1 16 5 19 9 4 4
14 7 22 7 29 0 195 81 275 134 254 168 401 414 462 776 14 79 13 395 0 470
-21 118 -24 130 -57 207 -105 254 -371 458 -648 498 -87 13 -715 12 -758 -1z
m593 -424 l332 -110 0 -413 1 -412 -92 -64 c-355 -250 -518 -362 -561 -387
l-50 -29 18 28 c17 26 18 72 19 754 0 606 -2 727 -13 734 -36 23 35 2 346
-101z"/>
<path d="M1833 142 c-46 -3 -59 -25 -22 -37 14 -5 20 -14 19 -33 -4 -62 -1
-72 23 -68 19 2 22 10 24 47 2 60 2 59 11 58 24 -4 32 2 24 18 -11 18 -18 20
-79 15z"/>
<path d="M2030 136 c-5 -7 -14 -23 -19 -37 -9 -24 -9 -24 -16 9 -7 28 -11 32
-40 32 l-32 0 2 -65 c1 -36 4 -67 7 -70 13 -13 38 9 38 34 1 25 2 24 16 -9
l16 -35 18 35 18 35 4 -30 c2 -22 8 -30 23 -30 18 0 20 7 22 66 1 63 0 67 -23
72 -13 2 -28 -1 -34 -7z"/>
</g>
</svg>
